<svg width="834" height="417" viewBox="0 0 834 417" fill="none" xmlns="http://www.w3.org/2000/svg">
<path d="M220.342 291C214.919 291 208.641 290.286 201.505 288.859C203.789 301.703 204.93 313.119 204.93 323.108C204.93 351.934 197.367 374.624 182.241 391.177C167.399 407.731 146.565 416.008 119.737 416.008C102.041 416.008 85.0599 411.584 68.7917 402.736C52.809 394.174 38.8241 381.902 26.8371 365.919C14.85 350.222 6.00245 332.098 0.294336 311.549L15.7062 307.268C23.6976 334.952 37.1117 357.214 55.9485 374.053C75.0706 391.177 96.3334 399.74 119.737 399.74C141.713 399.74 158.837 392.604 171.11 378.334C183.382 364.349 189.518 345.084 189.518 320.539C189.518 309.409 188.234 297.422 185.665 284.578C179.957 282.581 174.106 279.869 168.113 276.444L176.675 262.745C182.383 266.455 189.233 269.452 197.224 271.735C205.216 273.733 212.922 274.732 220.342 274.732V291ZM291.238 274.732V291H218.887V274.732H220.172C234.727 274.732 245.715 272.021 253.136 266.598C260.842 261.175 266.265 251.757 269.404 238.343C272.544 224.643 274.256 204.522 274.541 177.979C274.541 176.552 275.398 175.839 277.11 175.839L288.669 177.123C289.24 177.123 289.668 177.409 289.953 177.979C290.524 178.265 290.81 178.693 290.81 179.264C290.524 205.236 288.954 225.785 286.1 240.911C283.246 255.752 278.394 267.026 271.545 274.732H291.238ZM246.286 356.501C249.14 355.644 251.281 353.932 252.708 351.363C254.42 349.08 255.277 346.511 255.277 343.657C255.277 339.947 253.849 336.665 250.995 333.811C248.427 331.242 245.573 329.958 242.433 329.958C239.008 329.958 236.297 331.1 234.299 333.383C232.301 335.666 231.302 338.52 231.302 341.945C231.302 346.226 232.729 349.936 235.584 353.076C238.723 356.501 242.291 357.642 246.286 356.501ZM597.77 126.606C602.051 149.439 604.192 170.701 604.192 190.394C604.192 219.506 599.625 243.908 590.492 263.601C581.359 283.294 568.231 296.423 551.106 302.987C541.688 306.697 531.984 308.552 521.995 308.552C507.439 308.552 494.311 304.414 482.609 296.137C470.907 288.146 461.632 276.872 454.782 262.317C450.786 272.306 445.363 280.155 438.514 285.863C431.664 291.285 424.386 293.997 416.68 293.997C410.116 293.997 403.98 291.856 398.271 287.575C392.563 283.294 387.997 277.015 384.572 268.738C377.437 278.157 367.448 284.293 354.604 287.147C341.761 289.716 326.349 291 308.369 291H290.816V274.732H307.512C321.497 274.732 333.056 274.018 342.189 272.591C351.608 271.164 359.742 267.882 366.591 262.745C373.441 257.322 377.58 249.188 379.007 238.343L395.275 236.63C395.56 249.473 397.843 259.463 402.124 266.598C406.406 273.448 411.686 276.872 417.964 276.872C425.1 276.872 431.236 272.449 436.373 263.601C441.796 254.468 444.507 242.053 444.507 226.356L444.079 217.793C444.079 216.081 444.793 215.225 446.22 215.225H447.076L459.063 216.937C460.205 216.937 460.775 217.508 460.775 218.65V219.506C461.917 241.482 468.196 259.177 479.612 272.591C491.028 286.005 505.013 292.712 521.567 292.712C530.129 292.712 538.263 291.143 545.969 288.003C559.098 282.866 569.372 271.878 576.793 255.039C584.213 237.915 587.924 216.652 587.924 191.251C587.924 171.558 585.926 151.722 581.93 131.744C581.645 130.887 582.073 130.174 583.214 129.603L594.773 124.894C595.63 124.608 596.343 124.608 596.914 124.894C597.485 125.179 597.77 125.75 597.77 126.606ZM679.027 274.732V291H640.497C642.781 269.309 644.636 238.771 646.063 199.385C647.49 159.999 648.203 117.331 648.203 71.3803C648.203 42.5543 648.061 20.7207 647.775 5.87964C647.775 5.02342 648.346 4.3099 649.488 3.7391L661.047 0.742326H661.475C662.045 0.742326 662.616 1.17044 663.187 2.02666C663.758 2.59747 664.043 3.45368 664.043 4.59531C664.329 19.7218 664.471 42.2689 664.471 72.2365C664.471 160.141 662.474 227.64 658.478 274.732H679.027ZM831.196 274.732C832.623 274.732 833.337 275.445 833.337 276.872V288.859C833.337 289.43 833.051 290.001 832.481 290.572C832.195 290.857 831.767 291 831.196 291C814.357 291.571 787.815 291.856 751.568 291.856C717.034 291.856 692.917 291.571 679.218 291V274.732C702.05 275.588 727.737 276.016 756.277 276.016C776.541 276.016 791.525 275.873 801.229 275.588C804.368 256.18 806.651 240.911 808.078 229.78C809.791 218.65 810.647 207.662 810.647 196.816C810.647 168.276 802.513 144.872 786.245 126.606C769.977 108.055 740.723 94.3554 698.483 85.5078C697.056 84.937 696.485 84.0808 696.77 82.9392L699.767 70.9522C700.623 69.5251 701.479 68.9543 702.336 69.2397C749.428 78.9435 781.964 94.4981 799.944 115.904C818.21 137.309 827.343 163.994 827.343 195.96C827.343 207.091 826.487 218.65 824.775 230.637C823.348 242.338 821.064 257.179 817.925 275.16L831.196 274.732ZM759.274 368.916C762.128 368.06 764.269 366.347 765.696 363.778C767.408 361.495 768.264 358.927 768.264 356.073C768.264 352.362 766.837 349.08 763.983 346.226C761.415 343.657 758.561 342.373 755.421 342.373C751.996 342.373 749.285 343.515 747.287 345.798C745.289 348.081 744.29 350.935 744.29 354.36C744.29 358.641 745.717 362.351 748.571 365.491C751.711 368.916 755.278 370.057 759.274 368.916Z" fill="black"/>
</svg>
