<svg width="4136" height="318" viewBox="0 0 4136 318" fill="none" xmlns="http://www.w3.org/2000/svg">
<g filter="url(#filter0_d_1224_439)">
<path d="M4.274 307V0.902306H61.6406L203.345 100.224H205.485L347.189 0.902306H404.556V307H336.058V86.524L238.878 151.597V307H170.38V151.597L72.7714 86.524V307H4.274ZM458.153 307V86.524H520.229V307H458.153ZM457.725 50.1348V1.75851H520.657V50.1348H457.725ZM567.27 307V86.524H759.491C784.607 86.524 802.873 92.803 814.289 105.361C825.991 117.633 831.841 133.901 831.841 154.165V307H769.766V161.443C769.766 144.319 761.204 135.757 744.079 135.757H629.346V307H567.27ZM876.646 307V86.524H938.721V307H876.646ZM876.218 50.1348V1.75851H939.15V50.1348H876.218ZM985.763 307V86.524H1271.31C1296.43 86.524 1314.84 92.803 1326.54 105.361C1338.24 117.633 1344.09 133.901 1344.09 154.165V307H1282.01V161.871C1282.01 144.461 1273.17 135.757 1255.47 135.757H1195.96V307H1133.89V135.757H1047.84V307H985.763ZM1447.86 307C1424.74 307 1407.04 301.149 1394.77 289.448C1382.5 277.746 1376.36 261.05 1376.36 239.359C1376.36 217.953 1382.5 201.4 1394.77 189.698C1407.04 177.997 1424.74 172.146 1447.86 172.146H1612.25V161.871C1612.25 144.461 1603.69 135.757 1586.56 135.757H1405.05V86.524H1602.83C1628.8 86.524 1647.21 92.5176 1658.06 104.505C1668.9 116.206 1674.33 132.76 1674.33 154.165V307H1447.86ZM1458.99 257.768H1612.25V221.378H1458.99C1453.56 221.378 1449.28 223.091 1446.14 226.516C1443.29 229.655 1441.86 233.936 1441.86 239.359C1441.86 244.782 1443.29 249.205 1446.14 252.63C1449.28 256.055 1453.56 257.768 1458.99 257.768ZM1721.58 307V0.902306H1783.65V307H1721.58ZM1826.41 155.878V0.902306H2203.15V155.878H2133.79V56.5564H2040.47V307H1971.97V56.5564H1895.77V155.878H1826.41ZM2358.86 309.141C2320.62 309.141 2290.79 299.722 2269.39 280.885C2247.98 261.763 2237.28 233.793 2237.28 196.976C2237.28 159.873 2247.98 131.904 2269.39 113.067C2290.79 93.9446 2320.62 84.3835 2358.86 84.3835H2465.89C2491 84.3835 2510.13 90.377 2523.26 102.364C2536.67 114.066 2543.38 130.905 2543.38 152.881C2543.38 197.69 2517.55 220.094 2465.89 220.094H2304.06C2310.06 246.637 2328.32 259.908 2358.86 259.908H2532.25V309.141H2358.86ZM2358.86 133.616C2329.46 133.616 2311.34 146.031 2304.49 170.861H2462.89C2468.6 170.861 2473.02 169.149 2476.16 165.724C2479.59 162.299 2481.3 157.59 2481.3 151.597C2481.3 139.61 2475.16 133.616 2462.89 133.616H2358.86ZM2694.99 309.141C2656.75 309.141 2626.92 299.722 2605.52 280.885C2584.11 261.763 2573.41 233.793 2573.41 196.976C2573.41 159.873 2584.11 131.904 2605.52 113.067C2626.92 93.9446 2656.75 84.3835 2694.99 84.3835H2838.41V133.616H2694.99C2676.44 133.616 2662.17 138.753 2652.18 149.028C2642.48 159.303 2637.63 175.285 2637.63 196.976C2637.63 218.382 2642.48 234.222 2652.18 244.496C2662.17 254.771 2676.44 259.908 2694.99 259.908H2842.69V309.141H2694.99ZM2874.63 307V0.902306H2936.7V86.524H3066.85C3091.96 86.524 3110.23 92.803 3121.64 105.361C3133.35 117.633 3139.2 133.901 3139.2 154.165V307H3077.12V161.443C3077.12 144.319 3068.56 135.757 3051.43 135.757H2936.7V307H2874.63ZM3190.42 307V0.902306H3258.92V251.346H3482.82V307H3190.42ZM3577.95 307C3554.83 307 3537.13 301.149 3524.86 289.448C3512.59 277.746 3506.45 261.05 3506.45 239.359C3506.45 217.953 3512.59 201.4 3524.86 189.698C3537.13 177.997 3554.83 172.146 3577.95 172.146H3742.34V161.871C3742.34 144.461 3733.78 135.757 3716.66 135.757H3535.14V86.524H3732.92C3758.9 86.524 3777.3 92.5176 3788.15 104.505C3798.99 116.206 3804.42 132.76 3804.42 154.165V307H3577.95ZM3589.08 257.768H3742.34V221.378H3589.08C3583.66 221.378 3579.37 223.091 3576.24 226.516C3573.38 229.655 3571.95 233.936 3571.95 239.359C3571.95 244.782 3573.38 249.205 3576.24 252.63C3579.37 256.055 3583.66 257.768 3589.08 257.768ZM3851.67 307V0.902306H3913.74V307H3851.67ZM3862.37 307V257.768H4010.07C4028.62 257.768 4042.75 252.773 4052.45 242.784C4062.44 232.509 4067.43 217.24 4067.43 196.976C4067.43 176.427 4062.44 161.158 4052.45 151.168C4042.75 140.894 4028.62 135.757 4010.07 135.757H3866.65V86.524H4010.07C4048.31 86.524 4078.14 95.9424 4099.54 114.779C4120.95 133.616 4131.65 161.015 4131.65 196.976C4131.65 232.652 4120.95 259.908 4099.54 278.745C4078.14 297.582 4048.31 307 4010.07 307H3862.37Z" fill="black"/>
</g>
<defs>
<filter id="filter0_d_1224_439" x="0.274414" y="0.902344" width="4135.38" height="316.238" filterUnits="userSpaceOnUse" color-interpolation-filters="sRGB">
<feFlood flood-opacity="0" result="BackgroundImageFix"/>
<feColorMatrix in="SourceAlpha" type="matrix" values="0 0 0 0 0 0 0 0 0 0 0 0 0 0 0 0 0 0 127 0" result="hardAlpha"/>
<feOffset dy="4"/>
<feGaussianBlur stdDeviation="2"/>
<feComposite in2="hardAlpha" operator="out"/>
<feColorMatrix type="matrix" values="0 0 0 0 0 0 0 0 0 0 0 0 0 0 0 0 0 0 0.25 0"/>
<feBlend mode="normal" in2="BackgroundImageFix" result="effect1_dropShadow_1224_439"/>
<feBlend mode="normal" in="SourceGraphic" in2="effect1_dropShadow_1224_439" result="shape"/>
</filter>
</defs>
</svg>
