<svg width="3440" height="311" viewBox="0 0 3440 311" fill="none" xmlns="http://www.w3.org/2000/svg">
<path d="M0.402735 308V0.549986H58.0227L200.353 100.31H202.503L344.833 0.549986H402.453V308H333.653V86.55L236.043 151.91V308H167.243V151.91L69.2027 86.55V308H0.402735ZM526.807 308C501.58 308 483.09 301.693 471.337 289.08C459.87 276.467 454.137 260.127 454.137 240.06V86.55H516.487V232.75C516.487 249.95 525.087 258.55 542.287 258.55H631.727C648.927 258.55 657.527 249.95 657.527 232.75V86.55H719.877V240.06C719.877 260.127 714 276.467 702.247 289.08C690.78 301.693 672.433 308 647.207 308H526.807ZM757.619 310.15V260.7H968.319C980.359 260.7 986.379 253.963 986.379 240.49C986.379 227.303 980.359 220.71 968.319 220.71H832.009C806.496 220.71 787.146 214.977 773.959 203.51C760.773 191.757 754.179 174.987 754.179 153.2C754.179 131.127 760.773 114.213 773.959 102.46C787.433 90.42 806.783 84.4 832.009 84.4H1028.09V133.85H835.019C822.693 133.85 816.529 139.87 816.529 151.91C816.529 157.93 818.249 162.66 821.689 166.1C825.129 169.54 829.573 171.26 835.019 171.26H979.499C1001.86 171.26 1018.92 177.137 1030.67 188.89C1042.71 200.357 1048.73 217.127 1048.73 239.2C1048.73 261.56 1042.71 279.047 1030.67 291.66C1018.63 303.987 1001.57 310.15 979.499 310.15H757.619ZM1198.85 310.15C1160.44 310.15 1130.48 300.69 1108.98 281.77C1087.48 262.563 1076.73 234.47 1076.73 197.49C1076.73 160.223 1087.48 132.13 1108.98 113.21C1130.48 94.0033 1160.44 84.4 1198.85 84.4H1306.35C1331.58 84.4 1350.78 90.42 1363.97 102.46C1377.44 114.213 1384.18 131.127 1384.18 153.2C1384.18 198.207 1358.24 220.71 1306.35 220.71H1143.81C1149.83 247.37 1168.18 260.7 1198.85 260.7H1373V310.15H1198.85ZM1198.85 133.85C1169.32 133.85 1151.12 146.32 1144.24 171.26H1303.34C1309.07 171.26 1313.52 169.54 1316.67 166.1C1320.11 162.66 1321.83 157.93 1321.83 151.91C1321.83 139.87 1315.67 133.85 1303.34 133.85H1198.85ZM1418.65 156.21V0.549986H1797.05V156.21H1727.39V56.45H1633.65V308H1564.85V56.45H1488.31V156.21H1418.65ZM1953.45 310.15C1915.04 310.15 1885.08 300.69 1863.58 281.77C1842.08 262.563 1831.33 234.47 1831.33 197.49C1831.33 160.223 1842.08 132.13 1863.58 113.21C1885.08 94.0033 1915.04 84.4 1953.45 84.4H2060.95C2086.18 84.4 2105.38 90.42 2118.57 102.46C2132.04 114.213 2138.78 131.127 2138.78 153.2C2138.78 198.207 2112.84 220.71 2060.95 220.71H1898.41C1904.43 247.37 1922.78 260.7 1953.45 260.7H2127.6V310.15H1953.45ZM1953.45 133.85C1923.92 133.85 1905.72 146.32 1898.84 171.26H2057.94C2063.67 171.26 2068.12 169.54 2071.27 166.1C2074.71 162.66 2076.43 157.93 2076.43 151.91C2076.43 139.87 2070.27 133.85 2057.94 133.85H1953.45ZM2291.07 310.15C2252.65 310.15 2222.7 300.69 2201.2 281.77C2179.7 262.563 2168.95 234.47 2168.95 197.49C2168.95 160.223 2179.7 132.13 2201.2 113.21C2222.7 94.0033 2252.65 84.4 2291.07 84.4H2435.12V133.85H2291.07C2272.43 133.85 2258.1 139.01 2248.07 149.33C2238.32 159.65 2233.45 175.703 2233.45 197.49C2233.45 218.99 2238.32 234.9 2248.07 245.22C2258.1 255.54 2272.43 260.7 2291.07 260.7H2439.42V310.15H2291.07ZM2471.49 308V0.549986H2533.84V86.55H2664.56C2689.79 86.55 2708.14 92.8567 2719.6 105.47C2731.36 117.797 2737.23 134.137 2737.23 154.49V308H2674.88V161.8C2674.88 144.6 2666.28 136 2649.08 136H2533.84V308H2471.49ZM2779.58 308V93.5H2827.58V269H2984.48V308H2779.58ZM3051.14 308C3034.94 308 3022.54 303.9 3013.94 295.7C3005.34 287.5 3001.04 275.8 3001.04 260.6C3001.04 245.6 3005.34 234 3013.94 225.8C3022.54 217.6 3034.94 213.5 3051.14 213.5H3166.34V206.3C3166.34 194.1 3160.34 188 3148.34 188H3021.14V153.5H3159.74C3177.94 153.5 3190.84 157.7 3198.44 166.1C3206.04 174.3 3209.84 185.9 3209.84 200.9V308H3051.14ZM3058.94 273.5H3166.34V248H3058.94C3055.14 248 3052.14 249.2 3049.94 251.6C3047.94 253.8 3046.94 256.8 3046.94 260.6C3046.94 264.4 3047.94 267.5 3049.94 269.9C3052.14 272.3 3055.14 273.5 3058.94 273.5ZM3242.96 308V93.5H3286.46V308H3242.96ZM3250.46 308V273.5H3353.96C3366.96 273.5 3376.86 270 3383.66 263C3390.66 255.8 3394.16 245.1 3394.16 230.9C3394.16 216.5 3390.66 205.8 3383.66 198.8C3376.86 191.6 3366.96 188 3353.96 188H3253.46V153.5H3353.96C3380.76 153.5 3401.66 160.1 3416.66 173.3C3431.66 186.5 3439.16 205.7 3439.16 230.9C3439.16 255.9 3431.66 275 3416.66 288.2C3401.66 301.4 3380.76 308 3353.96 308H3250.46Z" fill="black"/>
</svg>
